<svg width="24" height="24" viewBox="0 0 24 24" fill="none" xmlns="http://www.w3.org/2000/svg">
<path d="M21.7219 4.49414H14.9806C14.3992 4.49414 13.8258 4.62951 13.3057 4.88953C12.7857 5.14955 12.3333 5.52707 11.9845 5.9922C11.6356 5.52707 11.1833 5.14955 10.6633 4.88953C10.1432 4.62951 9.56978 4.49414 8.98837 4.49414H2.24708C2.04842 4.49414 1.8579 4.57306 1.71743 4.71353C1.57696 4.854 1.49805 5.04452 1.49805 5.24317V18.7257C1.49805 18.9244 1.57696 19.1149 1.71743 19.2554C1.8579 19.3959 2.04842 19.4748 2.24708 19.4748H8.98837C9.58433 19.4748 10.1559 19.7115 10.5773 20.1329C10.9987 20.5544 11.2355 21.1259 11.2355 21.7219C11.2355 21.9205 11.3144 22.1111 11.4548 22.2515C11.5953 22.392 11.7858 22.4709 11.9845 22.4709C12.1832 22.4709 12.3737 22.392 12.5141 22.2515C12.6546 22.1111 12.7335 21.9205 12.7335 21.7219C12.7335 21.1259 12.9703 20.5544 13.3917 20.1329C13.8131 19.7115 14.3847 19.4748 14.9806 19.4748H21.7219C21.9206 19.4748 22.1111 19.3959 22.2516 19.2554C22.392 19.1149 22.4709 18.9244 22.4709 18.7257V5.24317C22.4709 5.04452 22.392 4.854 22.2516 4.71353C22.1111 4.57306 21.9206 4.49414 21.7219 4.49414ZM8.98837 17.9767H2.99611V5.9922H8.98837C9.58433 5.9922 10.1559 6.22895 10.5773 6.65036C10.9987 7.07178 11.2355 7.64333 11.2355 8.2393V18.7257C10.5878 18.2384 9.79892 17.9754 8.98837 17.9767ZM20.9729 17.9767H14.9806C14.1701 17.9754 13.3812 18.2384 12.7335 18.7257V8.2393C12.7335 7.64333 12.9703 7.07178 13.3917 6.65036C13.8131 6.22895 14.3847 5.9922 14.9806 5.9922H20.9729V17.9767ZM14.9806 8.2393H18.7258C18.9244 8.2393 19.115 8.31822 19.2554 8.45869C19.3959 8.59916 19.4748 8.78968 19.4748 8.98833C19.4748 9.18699 19.3959 9.37751 19.2554 9.51798C19.115 9.65845 18.9244 9.73736 18.7258 9.73736H14.9806C14.782 9.73736 14.5914 9.65845 14.451 9.51798C14.3105 9.37751 14.2316 9.18699 14.2316 8.98833C14.2316 8.78968 14.3105 8.59916 14.451 8.45869C14.5914 8.31822 14.782 8.2393 14.9806 8.2393ZM19.4748 11.9845C19.4748 12.1831 19.3959 12.3736 19.2554 12.5141C19.115 12.6546 18.9244 12.7335 18.7258 12.7335H14.9806C14.782 12.7335 14.5914 12.6546 14.451 12.5141C14.3105 12.3736 14.2316 12.1831 14.2316 11.9845C14.2316 11.7858 14.3105 11.5953 14.451 11.4548C14.5914 11.3143 14.782 11.2354 14.9806 11.2354H18.7258C18.9244 11.2354 19.115 11.3143 19.2554 11.4548C19.3959 11.5953 19.4748 11.7858 19.4748 11.9845ZM19.4748 14.9806C19.4748 15.1792 19.3959 15.3698 19.2554 15.5102C19.115 15.6507 18.9244 15.7296 18.7258 15.7296H14.9806C14.782 15.7296 14.5914 15.6507 14.451 15.5102C14.3105 15.3698 14.2316 15.1792 14.2316 14.9806C14.2316 14.7819 14.3105 14.5914 14.451 14.4509C14.5914 14.3105 14.782 14.2316 14.9806 14.2316H18.7258C18.9244 14.2316 19.115 14.3105 19.2554 14.4509C19.3959 14.5914 19.4748 14.7819 19.4748 14.9806Z" fill="url(#paint0_linear_379_789)"/>
<defs>
<linearGradient id="paint0_linear_379_789" x1="11.9845" y1="4.49414" x2="11.9845" y2="22.4709" gradientUnits="userSpaceOnUse">
<stop stop-color="#2ED90B"/>
<stop offset="1" stop-color="#1EB100"/>
</linearGradient>
</defs>
</svg>
