<svg width="80" height="80" viewBox="0 0 80 80" fill="none" xmlns="http://www.w3.org/2000/svg">
<path d="M21.5033 29.2901L8.86634 39.8209L21.5033 50.3517C21.7617 50.5585 21.9762 50.8148 22.1343 51.1055C22.2924 51.3963 22.391 51.7156 22.4242 52.0449C22.4574 52.3741 22.4246 52.7067 22.3277 53.0232C22.2309 53.3396 22.0719 53.6336 21.86 53.8878C21.6482 54.1421 21.3877 54.3515 21.094 54.5039C20.8002 54.6563 20.479 54.7486 20.1492 54.7753C19.8193 54.8021 19.4874 54.7628 19.1729 54.6597C18.8584 54.5567 18.5677 54.392 18.3176 54.1752L3.38473 41.7311C3.10453 41.4975 2.87909 41.2052 2.72439 40.8749C2.56969 40.5445 2.4895 40.1842 2.4895 39.8194C2.4895 39.4546 2.56969 39.0943 2.72439 38.7639C2.87909 38.4335 3.10453 38.1412 3.38473 37.9077L18.3176 25.4636C18.825 25.0411 19.4795 24.8376 20.137 24.8977C20.7946 24.9578 21.4013 25.2766 21.8237 25.784C22.2462 26.2915 22.4497 26.9459 22.3897 27.6034C22.3296 28.261 22.0107 28.8677 21.5033 29.2901ZM76.2572 37.9077L61.3243 25.4636C61.0731 25.2544 60.7831 25.0968 60.4709 24.9997C60.1587 24.9026 59.8305 24.8679 59.5049 24.8977C59.1793 24.9274 58.8628 25.021 58.5734 25.1731C58.284 25.3252 58.0274 25.5328 57.8182 25.784C57.3958 26.2915 57.1922 26.9459 57.2523 27.6034C57.3124 28.261 57.6312 28.8677 58.1386 29.2901L70.7756 39.8209L58.1386 50.3517C57.8803 50.5585 57.6658 50.8148 57.5077 51.1055C57.3495 51.3963 57.251 51.7156 57.2178 52.0449C57.1846 52.3741 57.2173 52.7067 57.3142 53.0232C57.4111 53.3396 57.5701 53.6336 57.7819 53.8878C57.9938 54.1421 58.2542 54.3515 58.548 54.5039C58.8417 54.6563 59.1629 54.7486 59.4928 54.7753C59.8226 54.8021 60.1545 54.7628 60.469 54.6597C60.7835 54.5567 61.0743 54.392 61.3243 54.1752L76.2572 41.7311C76.5374 41.4975 76.7628 41.2052 76.9175 40.8749C77.0722 40.5445 77.1524 40.1842 77.1524 39.8194C77.1524 39.4546 77.0722 39.0943 76.9175 38.7639C76.7628 38.4335 76.5374 38.1412 76.2572 37.9077ZM50.6255 10.1045C50.3183 9.99295 49.9921 9.94301 49.6656 9.95754C49.3391 9.97206 49.0186 10.0508 48.7225 10.1891C48.4264 10.3275 48.1604 10.5229 47.9398 10.764C47.7192 11.0052 47.5483 11.2874 47.4367 11.5947L27.5262 66.3486C27.4142 66.656 27.3639 66.9825 27.3782 67.3093C27.3925 67.6362 27.4711 67.9571 27.6095 68.2535C27.7479 68.55 27.9434 68.8162 28.1848 69.0371C28.4262 69.2579 28.7088 69.429 29.0164 69.5405C29.2891 69.6374 29.5763 69.6868 29.8657 69.6867C30.3768 69.6867 30.8755 69.5294 31.2941 69.236C31.7127 68.9427 32.0308 68.5276 32.2052 68.0472L52.1157 13.2933C52.2273 12.9861 52.2772 12.6599 52.2627 12.3333C52.2481 12.0068 52.1694 11.6864 52.0311 11.3902C51.8927 11.0941 51.6973 10.8282 51.4562 10.6076C51.215 10.387 50.9328 10.216 50.6255 10.1045Z" fill="url(#paint0_linear_358_165)"/>
<defs>
<linearGradient id="paint0_linear_358_165" x1="39.821" y1="9.95508" x2="39.821" y2="69.6867" gradientUnits="userSpaceOnUse">
<stop stop-color="#2ED90B"/>
<stop offset="1" stop-color="#1EB100"/>
</linearGradient>
</defs>
</svg>
