<svg width="50" height="34" viewBox="0 0 50 34" fill="none" xmlns="http://www.w3.org/2000/svg">
<g clip-path="url(#clip0_365_32)">
<path d="M50 0H0V33.333H50V0Z" fill="#141414"/>
<path d="M25.0001 0.806152V3.59615H25.8001V0.806152H25.0001ZM25.0001 5.27115V8.06215H25.8001V5.27215L25.0001 5.27115ZM22.9571 9.17315L20.6371 10.7232L21.0811 11.3882L23.4011 9.83815L22.9571 9.17315ZM27.8421 9.17315L27.3981 9.83815L29.7181 11.3882L30.1631 10.7232L27.8421 9.17315ZM-0.399902 10.6102V13.4002H0.400098V10.6102H-0.399902ZM49.6001 10.6102V13.4002H50.4001V10.6102H49.6001ZM19.2441 11.6522L16.9241 13.2022L17.3671 13.8682L19.6891 12.3182L19.2451 11.6522H19.2441ZM31.5551 11.6522L31.1111 12.3172L33.4311 13.8672L33.8761 13.2032L31.5551 11.6522ZM35.3381 14.2182L34.8941 14.8842L37.2151 16.4342L37.6591 15.7682L35.3381 14.2182ZM15.4861 14.2432L13.1661 15.7932L13.6101 16.4582L15.9301 14.9082L15.4861 14.2432ZM-0.399902 15.0132V17.8032H0.400098V15.0132H-0.399902ZM49.6001 15.0132V17.8032H50.4001V15.0132H49.6001ZM-0.399902 19.4782V22.2682H0.400098V19.4782H-0.399902ZM49.6001 19.4782V22.2682H50.4001V19.4782H49.6001ZM2.4421 23.3792L1.9981 24.0442L4.3181 25.5942L4.7631 24.9292L2.4421 23.3792ZM47.5571 23.3792L45.2371 24.9292L45.6801 25.5952L48.0021 24.0452L47.5571 23.3792ZM6.1551 25.8602L5.7111 26.5252L8.0311 28.0752L8.4761 27.4102L6.1551 25.8602ZM43.8451 25.8602L41.5231 27.4102L41.9671 28.0752L44.2881 26.5252L43.8441 25.8592L43.8451 25.8602ZM9.9371 28.4242L9.4931 29.0892L11.8131 30.6392L12.2581 29.9742L9.9371 28.4242ZM40.0471 28.4272L37.7261 29.9772L38.1701 30.6432L40.4911 29.0932L40.0471 28.4272ZM25.0001 29.7372V32.5272H25.8001V29.7372H25.0001Z" fill="#4A4A4A"/>
</g>
<defs>
<clipPath id="clip0_365_32">
<rect width="50" height="33.333" fill="white"/>
</clipPath>
</defs>
</svg>
