<svg width="50" height="50" viewBox="0 0 50 50" fill="none" xmlns="http://www.w3.org/2000/svg">
<path d="M47.1788 0.0488281L43.0196 45.099L24.9997 49.951L6.97947 45.099L2.82117 0.0488281H47.1788ZM38.7978 9.20908H24.9835H10.9244L11.5968 14.6493H24.9835H25.7354L24.9835 14.9623L12.086 20.334L12.5137 25.6517L24.9835 25.6921L31.6669 25.7133L31.239 32.8037L24.9834 34.5649V34.5594L24.9321 34.5736L18.8907 33.0485L18.5241 28.6472H18.5041H12.9004H12.8806L13.6141 37.1439L24.9836 40.5062V40.5001L25.0041 40.5062L36.3126 37.2052L37.7795 20.334H24.9836H24.952L24.9836 20.3203L38.2482 14.6493L38.7978 9.20908Z" fill="url(#paint0_linear_361_180)"/>
<defs>
<linearGradient id="paint0_linear_361_180" x1="25.0001" y1="0.0488281" x2="25.0001" y2="49.951" gradientUnits="userSpaceOnUse">
<stop stop-color="#2ED90B"/>
<stop offset="1" stop-color="#1EB100"/>
</linearGradient>
</defs>
</svg>
