<svg width="50" height="50" viewBox="0 0 50 50" fill="none" xmlns="http://www.w3.org/2000/svg">
<path fill-rule="evenodd" clip-rule="evenodd" d="M14.7674 6C11.4624 6 8.4737 6.82908 6.30442 8.85082C4.11457 10.8918 3 13.9226 3 17.8108V32.1892C3 36.0775 4.11457 39.1083 6.30442 41.1492C8.4737 43.171 11.4624 44 14.7674 44H35.2326C38.5377 44 41.5264 43.171 43.6955 41.1492C45.8855 39.1083 47 36.0775 47 32.1892V17.8108C47 13.9226 45.8855 10.8918 43.6955 8.85082C41.5264 6.82908 38.5377 6 35.2326 6H14.7674ZM39.7932 17.528C40.4639 17.0078 40.5875 16.0403 40.0691 15.367C39.5509 14.6938 38.587 14.5697 37.9161 15.0899L26.5639 23.8941C25.6428 24.6087 24.357 24.6087 23.4356 23.8941L12.0836 15.0899C11.4129 14.5697 10.4489 14.6938 9.93061 15.367C9.41229 16.0403 9.53588 17.0078 10.2067 17.528L21.5588 26.3323C23.5857 27.904 26.4141 27.904 28.441 26.3323L39.7932 17.528Z" fill="url(#paint0_linear_361_203)"/>
<defs>
<linearGradient id="paint0_linear_361_203" x1="25.0001" y1="6" x2="25.0001" y2="44" gradientUnits="userSpaceOnUse">
<stop stop-color="#2ED90B"/>
<stop offset="1" stop-color="#1EB100"/>
</linearGradient>
</defs>
</svg>
