<svg width="455" height="455" viewBox="0 0 455 455" fill="none" xmlns="http://www.w3.org/2000/svg">
<path d="M266.578 24.625L203.388 118.594C253.718 205.485 357.326 203.978 407.522 124.133L353.011 24.625L332.427 77.9942H284.736L266.578 24.625ZM117.771 99.2646C115.561 99.3707 113.433 100.138 111.663 101.467C106.756 105.141 105.757 112.109 109.432 117.017C117.314 127.544 121.216 136.031 121.906 143.526C122.617 151.264 119.549 157.525 115.319 163.554C109.687 171.581 102.07 179.143 95.1936 187.679C85.9603 199.143 78.0218 212.161 75.6517 228.982H98.1858C101.849 211.122 114.416 199.331 124.523 187.615C133.94 176.698 141.638 165.785 143.677 152.848C145.748 139.708 142.411 123.996 127.213 103.7C126.123 102.244 124.692 101.078 123.045 100.304C121.399 99.5309 119.588 99.1744 117.771 99.2646ZM262.843 110.373C272.452 110.037 283.364 115.364 291.799 135.355C257.821 149.691 240.293 120.59 240.293 120.59C240.293 120.59 248.351 112.859 258.817 110.838C260.145 110.577 261.491 110.422 262.843 110.373ZM348.067 110.373C349.42 110.422 350.766 110.577 352.094 110.838C362.56 112.859 370.616 120.59 370.616 120.59C370.616 120.59 353.092 149.691 319.113 135.356C327.548 115.364 338.46 110.038 348.068 110.372L348.067 110.373ZM248.795 184.071L213.857 228.982H236.205L284.426 277.442L332.648 228.982H352.336L347.065 191.944C316.436 202.498 281.09 201.258 248.795 184.071ZM28.2953 243.792L64.857 280.537H266.61L230.046 243.792H28.2953ZM338.804 243.792L302.242 280.537H390.143L426.705 243.792H338.804ZM69.1849 295.348V425.247H277.021V295.348H69.1849ZM291.832 295.348V425.247H385.815V295.348H291.832ZM198.465 317.205C214.666 326.678 223.473 343.936 223.062 361.485H192.356C192.112 354.435 188.235 348.302 182.54 344.9L198.465 317.205ZM147.049 317.824C152.198 326.742 157.348 335.661 162.498 344.579C156.501 347.906 152.38 354.208 152.127 361.485H123.556C123.325 352.61 125.309 343.537 130.074 335.284C134.345 327.887 140.256 322.016 147.049 317.824ZM172.241 349.472C179.261 349.472 184.962 355.171 184.962 362.196C184.962 369.216 179.261 374.913 172.241 374.913C165.22 374.913 159.522 369.216 159.522 362.196C159.522 355.171 165.22 349.472 172.241 349.472ZM182.571 379.463L196.744 404.043C189.123 408.114 180.561 410.291 171.897 410.069C163.95 409.864 156.03 407.758 148.648 403.546L162.447 379.774C165.44 381.445 168.812 382.32 172.241 382.315C176.017 382.315 179.551 381.276 182.571 379.463Z" fill="#B8B8B8"/>
</svg>
