<svg width="1440" height="401" viewBox="0 0 1440 401" fill="none" xmlns="http://www.w3.org/2000/svg">
<path d="M519.991 0.5L-4.35796 191.347" stroke="#292929"/>
<path d="M533.784 0.5L-3.50101 249.074" stroke="#292929"/>
<path d="M547.577 0.5L-3.3813 314.19" stroke="#292929"/>
<path d="M561.37 0.5L-4.09769 388.885" stroke="#292929"/>
<path d="M575.163 0.5L86.6383 400.5" stroke="#292929"/>
<path d="M588.956 0.5L176.734 400.5" stroke="#292929"/>
<path d="M602.749 0.5L254.612 400.5" stroke="#292929"/>
<path d="M616.542 0.5L323.713 400.5" stroke="#292929"/>
<path d="M630.335 0.5L386.373 400.5" stroke="#292929"/>
<path d="M644.128 0.5L444.245 400.5" stroke="#292929"/>
<path d="M657.921 0.5L498.547 400.5" stroke="#292929"/>
<path d="M671.715 0.5L550.212 400.5" stroke="#292929"/>
<path d="M685.508 0.5L599.982 400.5" stroke="#292929"/>
<path d="M699.3 0.5L648.475 400.5" stroke="#292929"/>
<path d="M713.093 0.5L696.232 400.5" stroke="#292929"/>
<path d="M726.886 0.5L743.748 400.5" stroke="#292929"/>
<path d="M740.679 0.5L791.505 400.5" stroke="#292929"/>
<path d="M754.473 0.5L839.999 400.5" stroke="#292929"/>
<path d="M768.266 0.5L889.769 400.5" stroke="#292929"/>
<path d="M782.059 0.5L941.433 400.5" stroke="#292929"/>
<path d="M795.852 0.5L995.736 400.5" stroke="#292929"/>
<path d="M809.645 0.5L1053.61 400.5" stroke="#292929"/>
<path d="M823.438 0.5L1116.27 400.5" stroke="#292929"/>
<path d="M837.231 0.5L1185.37 400.5" stroke="#292929"/>
<path d="M851.024 0.5L1263.25 400.5" stroke="#292929"/>
<path d="M864.817 0.5L1353.34 400.5" stroke="#292929"/>
<path d="M878.611 0.5L1443.25 388.318" stroke="#292929"/>
<path d="M892.404 0.5L1440.75 312.705" stroke="#292929"/>
<path d="M906.197 0.5L1441.67 248.235" stroke="#292929"/>
<path d="M919.99 0.5L1440.58 189.979" stroke="#292929"/>
<path d="M519.991 0.5H919.991" stroke="#292929"/>
<path d="M519.991 0.5H919.991" stroke="#292929"/>
<path d="M519.991 0.5H919.991" stroke="#292929"/>
<path d="M519.991 0.5H919.991" stroke="#292929"/>
<path d="M519.991 0.5H919.991" stroke="#292929"/>
<path d="M519.991 0.5H919.991" stroke="#292929"/>
<path d="M519.991 0.5H919.991" stroke="#292929"/>
<path d="M519.99 0.5H919.99" stroke="#292929"/>
<path d="M519.99 0.500244H919.991" stroke="#292929"/>
<path d="M519.99 0.500244H919.991" stroke="#292929"/>
<path d="M519.99 0.500488H919.991" stroke="#292929"/>
<path d="M519.989 0.500732H919.992" stroke="#292929"/>
<path d="M519.987 0.501221H919.994" stroke="#292929"/>
<path d="M519.984 0.502441H919.997" stroke="#292929"/>
<path d="M519.979 0.50415H920.001" stroke="#292929"/>
<path d="M519.971 0.50708H920.01" stroke="#292929"/>
<path d="M519.958 0.511719H920.023" stroke="#292929"/>
<path d="M519.938 0.519043H920.043" stroke="#292929"/>
<path d="M519.908 0.530029H920.073" stroke="#292929"/>
<path d="M519.863 0.546387H920.118" stroke="#292929"/>
<path d="M519.799 0.569824H920.182" stroke="#292929"/>
<path d="M519.707 0.603027H920.274" stroke="#292929"/>
<path d="M519.58 0.649658H920.401" stroke="#292929"/>
<path d="M519.404 0.713379H920.577" stroke="#292929"/>
<path d="M519.167 0.800049H920.814" stroke="#292929"/>
<path d="M518.848 0.915771H921.133" stroke="#292929"/>
<path d="M518.428 1.06909H921.554" stroke="#292929"/>
<path d="M517.877 1.26953H922.104" stroke="#292929"/>
<path d="M517.163 1.5293H922.818" stroke="#292929"/>
<path d="M516.246 1.86279H923.735" stroke="#292929"/>
<path d="M515.08 2.28735H924.901" stroke="#292929"/>
<path d="M513.607 2.82349H926.374" stroke="#292929"/>
<path d="M511.761 3.49536H928.22" stroke="#292929"/>
<path d="M509.464 4.33154H930.517" stroke="#292929"/>
<path d="M506.624 5.36499H933.357" stroke="#292929"/>
<path d="M503.136 6.63477H936.845" stroke="#292929"/>
<path d="M498.875 8.18555H941.106" stroke="#292929"/>
<path d="M493.701 10.0688H946.281" stroke="#292929"/>
<path d="M487.448 12.3445H952.533" stroke="#292929"/>
<path d="M479.932 15.0803H960.049" stroke="#292929"/>
<path d="M470.939 18.3535H969.043" stroke="#292929"/>
<path d="M460.226 22.2529H979.756" stroke="#292929"/>
<path d="M447.518 26.8779H992.463" stroke="#292929"/>
<path d="M432.508 32.3416H1007.47" stroke="#292929"/>
<path d="M414.843 38.7708H1025.14" stroke="#292929"/>
<path d="M394.134 46.3083H1045.85" stroke="#292929"/>
<path d="M369.939 55.1145H1070.04" stroke="#292929"/>
<path d="M341.769 65.3674H1098.21" stroke="#292929"/>
<path d="M309.076 77.2668H1130.91" stroke="#292929"/>
<path d="M271.251 91.0342H1168.73" stroke="#292929"/>
<path d="M227.618 106.915H1212.36" stroke="#292929"/>
<path d="M177.429 125.183H1262.55" stroke="#292929"/>
<path d="M119.858 146.137H1320.12" stroke="#292929"/>
<path d="M53.9921 170.11H1385.99" stroke="#292929"/>
<path d="M0 197.5H1440" stroke="#292929"/>
<path d="M0 228.5H1440" stroke="#292929"/>
<path d="M0 263.5H1440" stroke="#292929"/>
<path d="M0 304.5H1440" stroke="#292929"/>
<path d="M0 349.5H1440" stroke="#292929"/>
<path d="M0 400.5H1440" stroke="#292929"/>
</svg>
