<svg width="50" height="50" viewBox="0 0 50 50" fill="none" xmlns="http://www.w3.org/2000/svg">
<path fill-rule="evenodd" clip-rule="evenodd" d="M23.3138 6.89221C22.868 6.12746 21.5682 5.66369 20.2481 6.41817C18.9328 7.1699 18.7014 8.49498 19.1396 9.24642L24.4015 18.2696C24.8361 19.015 24.5842 19.9717 23.8388 20.4064C23.0934 20.8411 22.1365 20.5892 21.7019 19.8438L14.6862 7.8129C14.2402 7.04815 12.9406 6.58438 11.6205 7.33886C10.3051 8.09059 10.0738 9.41567 10.512 10.1671L18.4047 23.7019C18.8394 24.4473 18.5875 25.404 17.842 25.8388C17.0965 26.2734 16.1398 26.0215 15.7051 25.2761L12.1973 19.2606C11.7513 18.4959 10.4517 18.0321 9.13157 18.7866C7.81623 19.5383 7.5849 20.8634 8.02309 21.6148L15.9158 35.1496C19.2677 40.8978 27.5392 42.763 34.5538 38.7542C41.5636 34.748 44.0553 26.7448 40.7111 21.01L35.4492 11.987C35.0034 11.2222 33.7038 10.7584 32.3836 11.5129C31.0684 12.2646 30.8369 13.5897 31.275 14.3412L34.783 20.3566C34.993 20.7166 35.0503 21.1457 34.9425 21.5482C34.8346 21.9507 34.5705 22.2936 34.2086 22.5003C30.995 24.3367 30.0103 27.888 31.4171 30.3005C31.8519 31.0459 31.5998 32.0025 30.8544 32.4373C30.109 32.8721 29.1523 32.62 28.7175 31.8746C26.8161 28.6138 27.5844 24.6875 30.0405 21.9123C30.7271 21.1365 30.9621 20.008 30.4403 19.113L23.3138 6.89221Z" fill="url(#paint0_linear_362_2)"/>
<g opacity="0.5">
<path fill-rule="evenodd" clip-rule="evenodd" d="M9.19448 37.2061C9.93994 36.7715 10.8966 37.0234 11.3314 37.7688C13.054 40.723 15.6875 42.9567 18.9352 44.4063C19.7232 44.758 20.0769 45.6819 19.7252 46.47C19.3735 47.258 18.4495 47.6117 17.6615 47.26C13.8875 45.5757 10.7213 42.9261 8.63181 39.343C8.1971 38.5975 8.44902 37.6409 9.19448 37.2061Z" fill="url(#paint1_linear_362_2)"/>
<path fill-rule="evenodd" clip-rule="evenodd" d="M39.386 8.17055C37.2737 6.0133 34.2612 5.21759 31.3123 6.05672C30.4823 6.29288 29.6179 5.81149 29.3819 4.98149C29.1456 4.15149 29.6271 3.28717 30.4571 3.05101C34.495 1.90207 38.6958 2.99899 41.6189 5.98422C42.2227 6.6008 42.2123 7.59007 41.5956 8.1938C40.9792 8.79755 39.9898 8.78713 39.386 8.17055Z" fill="url(#paint2_linear_362_2)"/>
</g>
<defs>
<linearGradient id="paint0_linear_362_2" x1="25.0009" y1="6.03418" x2="25.0009" y2="40.893" gradientUnits="userSpaceOnUse">
<stop stop-color="#2ED90B"/>
<stop offset="1" stop-color="#1EB100"/>
</linearGradient>
<linearGradient id="paint1_linear_362_2" x1="14.1401" y1="36.9932" x2="14.1401" y2="47.3961" gradientUnits="userSpaceOnUse">
<stop stop-color="#2ED90B"/>
<stop offset="1" stop-color="#1EB100"/>
</linearGradient>
<linearGradient id="paint2_linear_362_2" x1="35.6934" y1="2.604" x2="35.6934" y2="8.63989" gradientUnits="userSpaceOnUse">
<stop stop-color="#2ED90B"/>
<stop offset="1" stop-color="#1EB100"/>
</linearGradient>
</defs>
</svg>
