<svg width="50" height="50" viewBox="0 0 50 50" fill="none" xmlns="http://www.w3.org/2000/svg">
<path fill-rule="evenodd" clip-rule="evenodd" d="M38.5877 15H38.5699H17.0299L17.545 20H38.0752C37.7743 24.38 36.8639 33.6596 36.5299 37.8821L24.9987 41.1279V41.1377L24.9732 41.1499L13.4344 37.0898L12.6439 27.5H18.2999L18.7002 32.6575L24.9834 35H24.9987L31.2717 32.7502L31.9169 25H12.3915C12.2971 23.9975 11.0833 10.98 10.8717 10H39.0926C38.9345 11.65 38.7739 13.345 38.5877 15ZM2.5 0L6.59531 45.3699L24.9732 50L43.3996 45.2771L47.5 0H2.5Z" fill="url(#paint0_linear_361_172)"/>
<defs>
<linearGradient id="paint0_linear_361_172" x1="25.0001" y1="0" x2="25.0001" y2="50" gradientUnits="userSpaceOnUse">
<stop stop-color="#2ED90B"/>
<stop offset="1" stop-color="#1EB100"/>
</linearGradient>
</defs>
</svg>
