<svg width="50" height="50" viewBox="0 0 50 50" fill="none" xmlns="http://www.w3.org/2000/svg">
<g clip-path="url(#clip0_361_201)">
<path fill-rule="evenodd" clip-rule="evenodd" d="M22 0C16.0252 0 15.276 0.0253255 12.9294 0.132391C10.5878 0.239195 8.98854 0.611131 7.58918 1.15502C6.14248 1.71716 4.91559 2.46942 3.69246 3.69245C2.4694 4.91558 1.71715 6.14247 1.15502 7.58918C0.61113 8.98854 0.239196 10.5878 0.132391 12.9294C0.0253254 15.276 0 16.0252 0 22.0002C0 27.9749 0.0253254 28.724 0.132391 31.0707C0.239196 33.4123 0.61113 35.0116 1.15502 36.4109C1.71715 37.8577 2.4694 39.0846 3.69246 40.3076C4.91559 41.5306 6.14248 42.2829 7.58918 42.8452C8.98854 43.3889 10.5878 43.7609 12.9294 43.8678C15.276 43.9747 16.0252 44 22 44C27.9749 44 28.724 43.9747 31.0705 43.8678C33.4123 43.7609 35.0114 43.3889 36.4109 42.8452C37.8575 42.2829 39.0844 41.5306 40.3076 40.3076C41.5306 39.0846 42.2829 37.8577 42.8452 36.4109C43.3889 35.0116 43.7609 33.4123 43.8676 31.0707C43.9747 28.724 44 27.9749 44 22.0002C44 16.0252 43.9747 15.276 43.8676 12.9294C43.7609 10.5878 43.3889 8.98854 42.8452 7.58918C42.2829 6.14247 41.5306 4.91558 40.3076 3.69245C39.0844 2.46942 37.8575 1.71716 36.4109 1.15502C35.0114 0.611131 33.4123 0.239195 31.0705 0.132391C28.724 0.0253255 27.9749 0 22 0ZM14.6667 22.0002C14.6667 26.0502 17.9499 29.3334 22 29.3334C26.0502 29.3334 29.3335 26.0502 29.3335 22.0002C29.3335 17.9499 26.0502 14.6667 22 14.6667C17.9499 14.6667 14.6667 17.9499 14.6667 22.0002ZM10.7027 22.0002C10.7027 15.7607 15.7607 10.7027 22 10.7027C28.2393 10.7027 33.2973 15.7607 33.2973 22.0002C33.2973 28.2393 28.2393 33.2973 22 33.2973C15.7607 33.2973 10.7027 28.2393 10.7027 22.0002ZM33.7437 12.8964C35.2018 12.8964 36.3838 11.7144 36.3838 10.2564C36.3838 8.79833 35.2018 7.61634 33.7437 7.61634C32.2857 7.61634 31.1037 8.79833 31.1037 10.2564C31.1037 11.7144 32.2857 12.8964 33.7437 12.8964Z" fill="url(#paint0_linear_361_201)"/>
</g>
<defs>
<linearGradient id="paint0_linear_361_201" x1="22.0001" y1="0" x2="22.0001" y2="44" gradientUnits="userSpaceOnUse">
<stop stop-color="#2ED90B"/>
<stop offset="1" stop-color="#1EB100"/>
</linearGradient>
<clipPath id="clip0_361_201">
<rect width="50" height="50" fill="white"/>
</clipPath>
</defs>
</svg>
