<svg width="50" height="50" viewBox="0 0 50 50" fill="none" xmlns="http://www.w3.org/2000/svg">
<path d="M46.75 3H3V46.75H46.75V3Z" fill="url(#paint0_linear_361_165)"/>
<path d="M29.6875 39.5125L32.9086 37.381C33.1611 38.1741 34.7597 40.0577 36.7789 40.0577C38.7981 40.0577 39.7356 38.9549 39.7356 38.2236C39.7356 36.2311 37.6737 35.5286 36.6834 35.1913C36.5219 35.1363 36.3891 35.091 36.2981 35.0514C36.2514 35.0311 36.1809 35.0041 36.0905 34.9696C34.9891 34.5488 30.9255 32.9963 30.9255 28.496C30.9255 23.5392 35.7091 22.9692 36.7909 22.9692C37.4986 22.9692 40.9014 23.056 42.5961 26.2406L39.4711 28.4217C38.7861 27.0338 37.6478 26.5753 36.9472 26.5753C35.2164 26.5753 34.8558 27.8441 34.8558 28.4217C34.8558 30.0424 36.7362 30.7688 38.3239 31.3821C38.7394 31.5425 39.1347 31.6952 39.4711 31.8542C41.2019 32.6721 43.75 34.0105 43.75 38.2236C43.75 40.3339 41.98 43.7505 37.5241 43.7505C31.5384 43.7505 29.9519 40.1569 29.6875 39.5125Z" fill="#141414"/>
<path d="M14.0625 39.9356L17.4198 37.8053C17.6828 38.598 18.7052 40.0596 20.1883 40.0596C21.6716 40.0596 22.4308 38.5361 22.4308 37.8053V23.438H26.5597V37.8053C26.6266 39.787 25.5275 43.7505 20.6769 43.7505C16.2172 43.7505 14.3632 41.1 14.0625 39.9356Z" fill="#141414"/>
<defs>
<linearGradient id="paint0_linear_361_165" x1="24.8751" y1="3" x2="24.8751" y2="46.75" gradientUnits="userSpaceOnUse">
<stop stop-color="#2ED90B"/>
<stop offset="1" stop-color="#1EB100"/>
</linearGradient>
</defs>
</svg>
