<svg width="50" height="50" viewBox="0 0 50 50" fill="none" xmlns="http://www.w3.org/2000/svg">
<path d="M38.2031 38.2032H32.6469V29.5C32.6469 27.425 32.6094 24.7532 29.7563 24.7532C26.8625 24.7532 26.4188 27.0157 26.4188 29.3469V38.2032H20.8625V20.3063H26.1969V22.7532H26.2719C27.3594 20.8969 29.3844 19.7844 31.5344 19.8625C37.1656 19.8625 38.2062 23.5657 38.2062 28.3875L38.2031 38.2V38.2032ZM14.5938 17.8594C13.7402 17.8553 12.9228 17.5147 12.319 16.9114C11.7151 16.3082 11.3737 15.4911 11.3688 14.6375C11.3688 12.8688 12.825 11.4125 14.5938 11.4125C16.3625 11.4125 17.8156 12.8688 17.8188 14.6375C17.8188 16.4063 16.3625 17.8594 14.5938 17.8594ZM17.3719 38.2032H11.8094V20.3063H17.3719V38.2032ZM40.9687 6.25005H9.01562C8.2911 6.24584 7.59418 6.52773 7.07632 7.03447C6.55847 7.54121 6.26151 8.23185 6.25 8.9563V41.0438C6.26151 41.7682 6.55847 42.4589 7.07632 42.9656C7.59418 43.4724 8.2911 43.7543 9.01562 43.75H40.9719C41.6981 43.7559 42.3973 43.475 42.9175 42.9682C43.4377 42.4615 43.7368 41.7699 43.75 41.0438V8.95317C43.7368 8.22763 43.4375 7.5367 42.9171 7.03095C42.3967 6.5252 41.6975 6.24563 40.9719 6.25317L40.9687 6.25005Z" fill="url(#paint0_linear_438_2)"/>
<defs>
<linearGradient id="paint0_linear_438_2" x1="25" y1="6.25" x2="25" y2="43.7501" gradientUnits="userSpaceOnUse">
<stop stop-color="#2ED90B"/>
<stop offset="1" stop-color="#1EB100"/>
</linearGradient>
</defs>
</svg>
