<svg width="50" height="50" viewBox="0 0 50 50" fill="none" xmlns="http://www.w3.org/2000/svg">
<path fill-rule="evenodd" clip-rule="evenodd" d="M20.3381 3.125C16.9052 3.125 14.1223 5.81958 14.1223 9.14352V13.3102H24.8805V14.4676H9.34084C5.90792 14.4676 3.125 17.1622 3.125 20.4861V29.5139C3.125 32.8378 5.90792 35.5323 9.34084 35.5323H12.9269V30.4398C12.9269 27.1159 15.7098 24.4213 19.1428 24.4213H30.6181C33.523 24.4213 35.8777 22.1413 35.8777 19.3288V9.14352C35.8777 5.81958 33.0948 3.125 29.6619 3.125H20.3381ZM18.9037 10.5324C20.092 10.5324 21.0553 9.59966 21.0553 8.44908C21.0553 7.29848 20.092 6.36573 18.9037 6.36573C17.7153 6.36573 16.752 7.29848 16.752 8.44908C16.752 9.59966 17.7153 10.5324 18.9037 10.5324Z" fill="url(#paint0_linear_361_159)"/>
<path fill-rule="evenodd" clip-rule="evenodd" d="M29.6616 46.8751C33.0946 46.8751 35.8776 44.1806 35.8776 40.8567V36.69H25.1193V35.5326H40.659C44.0919 35.5326 46.8747 32.838 46.8747 29.5141V20.4862C46.8747 17.1623 44.0919 14.4678 40.659 14.4678H37.0729V19.5603C37.0729 22.8844 34.2899 25.5789 30.8571 25.5789H19.3816C16.4768 25.5789 14.1221 27.8589 14.1221 30.6714V40.8567C14.1221 44.1806 16.9051 46.8751 20.3379 46.8751H29.6616ZM31.0961 39.4678C29.9077 39.4678 28.9444 40.4005 28.9444 41.5511C28.9444 42.7017 29.9077 43.6344 31.0961 43.6344C32.2844 43.6344 33.2477 42.7017 33.2477 41.5511C33.2477 40.4005 32.2844 39.4678 31.0961 39.4678Z" fill="url(#paint1_linear_361_159)"/>
<defs>
<linearGradient id="paint0_linear_361_159" x1="19.5014" y1="3.125" x2="19.5014" y2="35.5323" gradientUnits="userSpaceOnUse">
<stop stop-color="#2ED90B"/>
<stop offset="1" stop-color="#1EB100"/>
</linearGradient>
<linearGradient id="paint1_linear_361_159" x1="30.4985" y1="14.4678" x2="30.4985" y2="46.8751" gradientUnits="userSpaceOnUse">
<stop stop-color="#2ED90B"/>
<stop offset="1" stop-color="#1EB100"/>
</linearGradient>
</defs>
</svg>
